PathFileType	4	(X/Y/Z)	 s02c0303.trc
DataRate	CameraRate	NumFrames	NumMarkers	Units	OrigDataRate	OrigDataStartFrame	OrigNumFrames
200	200	4	50	mm	200	751	2000
Frame#	Time	racr			lacr			c7			jug			rlel			rdr			llel			ldr			s2			lic			ric			lasi			rasi			rpsi			lpsi			rgt			lgt			rth1			rth2			rth3			rth4			rlfc			rmfc			rsh1			rsh2			rsh3			rsh4			rlmal			rmmal			rtoe			rmt5			rmt1			lth1			lth2			lth4			lth3			llfc			lmfc			lsh1			lsh2			lsh3			lsh4			llmal			lmmal			lcal			ltoe			lmt5			SBIKE			LBIKE			RBIKE			
		X1	Y1	Z1	X2	Y2	Z2	X3	Y3	Z3	X4	Y4	Z4	X5	Y5	Z5	X6	Y6	Z6	X7	Y7	Z7	X8	Y8	Z8	X9	Y9	Z9	X10	Y10	Z10	X11	Y11	Z11	X12	Y12	Z12	X13	Y13	Z13	X14	Y14	Z14	X15	Y15	Z15	X16	Y16	Z16	X17	Y17	Z17	X18	Y18	Z18	X19	Y19	Z19	X20	Y20	Z20	X21	Y21	Z21	X22	Y22	Z22	X23	Y23	Z23	X24	Y24	Z24	X25	Y25	Z25	X26	Y26	Z26	X27	Y27	Z27	X28	Y28	Z28	X29	Y29	Z29	X30	Y30	Z30	X31	Y31	Z31	X32	Y32	Z32	X33	Y33	Z33	X34	Y34	Z34	X35	Y35	Z35	X36	Y36	Z36	X37	Y37	Z37	X38	Y38	Z38	X39	Y39	Z39	X40	Y40	Z40	X41	Y41	Z41	X42	Y42	Z42	X43	Y43	Z43	X44	Y44	Z44	X45	Y45	Z45	X46	Y46	Z46	X47	Y47	Z47	X48	Y48	Z48	X49	Y49	Z49	X50	Y50	Z50	
751	3.7550	696.701313	1253.930124	-68.970986	765.230769	1229.332646	-401.862470	731.543150	1275.270246	-244.108922	645.257457	1157.894384	-242.109491	584.213607	1002.909119	-32.594876	721.922117	858.384251	-108.252195	644.590701	1040.555303	-588.901127	730.551514	852.394842	-514.701680	197.030731	1221.906370	-344.055153	336.752163	1170.641552	-469.496638	292.523269	1199.764305	-179.936655	364.477417	1126.690926	-432.644658	344.517268	1172.556933	-208.220251	211.284233	1256.818037	-308.748555	238.753031	1252.659386	-392.080831	264.292641	1128.471910	-142.386562	261.398984	1086.726642	-497.356334	342.613982	1082.168097	-131.736863	422.428627	1044.411400	-128.452408	472.781297	981.643744	-98.551443	443.317429	1064.248288	-152.986981	564.388628	860.219348	-122.835004	562.832869	843.033379	-235.221661	529.334236	751.738156	-111.224994	499.056768	669.723899	-133.438714	437.188168	610.465434	-132.290240	510.904190	666.036277	-171.624722	361.764583	517.022965	-141.147637	373.852866	534.992111	-222.731493	556.084540	417.513053	-184.373514	447.318814	421.681367	-121.961429	475.412598	434.073944	-229.606078	331.115051	965.279548	-508.891037	376.639820	890.668313	-505.200918	407.742785	900.455890	-488.166128	377.127648	801.517965	-504.856981	399.685195	701.340909	-490.830526	393.621296	670.384522	-390.647780	343.584179	611.790697	-513.306474	311.154322	533.072217	-497.834752	240.760119	476.568709	-501.562032	327.596207	524.450662	-460.968905	164.820521	394.687835	-488.665876	180.148606	381.506272	-412.289927	89.402310	405.377590	-444.070635	254.737777	170.480712	-436.093985	171.916242	236.245906	-501.665748	-125.641704	872.587170	-305.967693	37.137124	87.812978	-513.890445	33.883432	83.461183	-113.883933	
752	3.7600	696.654522	1251.814570	-67.618990	765.535193	1229.843109	-401.294660	732.018002	1274.485490	-242.957003	644.525379	1157.963622	-242.157676	582.527954	1001.360468	-34.011891	721.706711	858.517349	-108.837404	645.100262	1040.948852	-588.427120	730.492263	852.167457	-514.832968	197.171815	1222.927477	-343.135076	336.956197	1172.377807	-468.982307	292.751228	1198.138131	-179.228416	364.681465	1128.037177	-432.820719	344.875705	1171.085875	-207.643287	211.112772	1258.654107	-306.787767	237.685698	1255.209233	-389.761503	264.142822	1126.056418	-142.531771	262.848374	1088.429678	-498.311344	342.527950	1078.346498	-131.544084	421.456013	1038.660960	-128.165606	470.298700	974.597962	-98.639366	442.822138	1058.160864	-152.738295	558.389258	850.833172	-123.317577	557.057141	833.783722	-234.895783	524.496668	740.896112	-111.495862	496.319363	658.412859	-134.396928	435.848624	597.419934	-133.484321	507.867483	655.390000	-172.772793	363.210581	504.214720	-142.970172	375.035906	522.563705	-223.785368	560.203778	410.057666	-183.070716	450.662172	411.562772	-121.936971	479.499057	424.917988	-229.280011	335.049284	967.753646	-508.281852	381.838689	894.117402	-505.193508	412.661476	904.371510	-488.156368	384.055238	805.054115	-505.350641	407.519760	704.909315	-492.323423	401.115097	673.664601	-391.324954	349.194370	616.098768	-514.390191	314.170599	538.427870	-498.770494	241.818795	484.480785	-502.521980	330.370631	529.206315	-462.162105	162.890317	404.337761	-489.626555	178.117351	391.070596	-413.149161	87.466230	416.097344	-444.466284	249.309813	178.826679	-436.054596	167.288362	245.446373	-501.713355	-125.512538	872.615575	-305.922792	37.145721	87.825582	-513.886046	33.912465	83.445524	-113.877468	
753	3.7650	696.982358	1249.810123	-66.480019	765.828999	1230.619794	-400.824112	732.593940	1273.832336	-242.003040	644.169508	1157.984688	-242.249744	581.204984	1000.041802	-35.225398	721.537555	858.524540	-109.332021	645.774244	1041.313336	-587.852350	730.486506	851.891289	-515.071656	197.395993	1223.372852	-341.945114	337.230989	1173.737498	-468.153505	292.911617	1196.200107	-178.506873	365.080139	1129.246244	-433.048536	345.100378	1169.250365	-207.174832	213.289421	1259.036609	-306.543703	238.270760	1256.867015	-388.083671	263.983100	1123.297476	-142.594482	264.525177	1089.820315	-499.194978	342.552174	1074.242104	-131.349918	420.556338	1032.847919	-128.010935	467.842258	967.481999	-98.762812	442.862435	1052.538297	-151.930292	552.113856	840.638113	-124.128153	551.383963	824.308978	-234.822068	519.319443	730.046038	-111.641548	493.811697	647.398986	-135.332118	435.095601	584.722062	-134.869067	507.506712	645.183323	-172.638365	364.572143	492.140917	-143.919697	376.292125	510.347822	-224.867768	563.737280	401.812958	-182.453187	454.119295	401.268170	-122.160038	482.934766	415.562384	-229.428803	339.062780	970.173454	-508.254182	387.140378	897.455480	-505.222662	417.704000	908.182064	-488.105197	391.043468	808.452906	-505.941717	415.031855	708.013264	-493.128234	408.549967	676.901764	-392.177769	355.004437	620.114959	-515.503761	317.491160	543.815283	-499.846428	243.416926	492.146457	-503.284649	333.343199	533.996745	-463.058031	161.732383	414.066083	-490.546502	176.801448	400.776789	-413.931629	86.976380	427.124951	-445.402623	244.395978	186.998770	-436.120108	163.286895	254.816218	-501.811600	-125.408270	872.600304	-305.981123	37.175226	87.745814	-513.930304	33.915670	83.421579	-113.895417	
754	3.7700	697.629129	1247.968976	-65.627699	766.048998	1231.488554	-400.549427	733.315799	1273.189803	-241.187363	643.768665	1158.183996	-242.332974	580.165057	998.862387	-36.237997	721.405332	858.610495	-109.671031	646.539660	1041.637850	-587.372090	730.552953	851.572496	-515.442767	197.725125	1223.246766	-340.837242	337.409204	1175.007012	-467.609347	293.797624	1194.047710	-176.798923	365.337150	1130.156074	-432.971574	344.610411	1167.179085	-207.164220	212.597506	1259.403503	-303.998698	238.517212	1257.859405	-386.025573	263.726558	1120.159690	-142.657025	266.207975	1090.812514	-500.048161	342.672087	1069.965375	-131.189589	419.658203	1026.801515	-127.972498	465.473106	960.304397	-98.887193	442.397960	1046.139931	-151.808241	546.050653	831.251812	-124.955535	545.796459	815.455852	-235.252015	514.759722	720.492545	-112.324731	491.103708	636.859762	-136.832348	434.600750	572.793355	-136.126533	504.514219	636.014682	-173.745730	365.865176	480.753638	-144.589719	377.824697	498.588454	-225.992531	566.964572	392.890932	-182.927594	457.400851	390.944460	-122.484337	485.932004	405.659651	-230.123539	343.106932	972.482495	-508.231619	392.474626	900.603093	-505.327965	422.707540	911.750645	-488.086455	398.029925	811.763110	-506.592107	422.603675	711.549803	-494.407925	416.023510	679.938151	-393.239018	360.754588	624.420452	-516.535375	321.203301	549.153501	-500.858447	245.577659	499.693777	-504.189936	336.869088	538.780728	-464.172806	161.462837	423.676091	-491.477493	176.649267	410.214689	-414.776752	86.971742	437.996708	-445.755520	239.948388	195.306038	-436.211785	160.059047	264.276885	-501.889215	-125.358520	872.563537	-306.126499	37.203428	87.620382	-513.975618	33.934631	83.409663	-113.904330	
